<svg width="48" height="48" viewBox="0 0 48 48" fill="none" xmlns="http://www.w3.org/2000/svg">
<circle cx="24" cy="24" r="24" fill="#FFBE7C"/>
<path d="M22.2891 28.4141V30H17.5625V28.4141H22.2891ZM18.0625 18.625V30H16.1641V18.625H18.0625ZM25.3047 27.5078L27.125 18.625H28.25L28.2031 20.8516L26.2344 30H25.0547L25.3047 27.5078ZM24.1484 18.625L25.5938 27.4453L25.6562 30H24.4141L22.2656 18.625H24.1484ZM30.2266 27.4141L31.6562 18.625H33.5312L31.3906 30H30.1484L30.2266 27.4141ZM28.7031 18.625L30.5078 27.5312L30.7422 30H29.5625L27.6406 20.8438L27.5938 18.625H28.7031Z" fill="black"/>
</svg>
