<svg width="16" height="19" viewBox="0 0 16 19" fill="none" xmlns="http://www.w3.org/2000/svg">
<path d="M12.4817 4.97331L13.6926 3.76248L14.8709 4.94081L13.6601 6.15165C14.8565 7.64929 15.4342 9.54821 15.2743 11.4584C15.1144 13.3686 14.2292 15.1451 12.8005 16.4231C11.3717 17.701 9.50786 18.3834 7.59171 18.33C5.67556 18.2767 3.85256 17.4917 2.49712 16.1363C1.14167 14.7808 0.356665 12.9578 0.303322 11.0417C0.24998 9.12551 0.93235 7.26166 2.21029 5.83291C3.48823 4.40415 5.26473 3.51894 7.17495 3.35908C9.08516 3.19922 10.9841 3.77684 12.4817 4.97331ZM7.80006 16.6666C8.5661 16.6666 9.32465 16.5158 10.0324 16.2226C10.7401 15.9295 11.3832 15.4998 11.9248 14.9581C12.4665 14.4164 12.8962 13.7734 13.1894 13.0656C13.4825 12.3579 13.6334 11.5994 13.6334 10.8333C13.6334 10.0673 13.4825 9.30873 13.1894 8.60099C12.8962 7.89326 12.4665 7.2502 11.9248 6.70852C11.3832 6.16685 10.7401 5.73717 10.0324 5.44402C9.32465 5.15086 8.5661 4.99998 7.80006 4.99998C6.25296 4.99998 4.76923 5.61456 3.67527 6.70852C2.58131 7.80249 1.96672 9.28622 1.96672 10.8333C1.96672 12.3804 2.58131 13.8641 3.67527 14.9581C4.76923 16.0521 6.25296 16.6666 7.80006 16.6666ZM6.96672 6.66665H8.63339V11.6666H6.96672V6.66665ZM4.46672 0.833313H11.1334V2.49998H4.46672V0.833313Z" fill="white"/>
</svg>
