<svg width="19" height="19" viewBox="0 0 19 19" fill="none" xmlns="http://www.w3.org/2000/svg">
<path d="M0.666626 18.3333C0.666626 16.5652 1.36901 14.8695 2.61925 13.6193C3.86949 12.369 5.56518 11.6666 7.33329 11.6666C9.1014 11.6666 10.7971 12.369 12.0473 13.6193C13.2976 14.8695 14 16.5652 14 18.3333H12.3333C12.3333 17.0072 11.8065 15.7355 10.8688 14.7978C9.93114 13.8601 8.65937 13.3333 7.33329 13.3333C6.00721 13.3333 4.73544 13.8601 3.79776 14.7978C2.86008 15.7355 2.33329 17.0072 2.33329 18.3333H0.666626ZM7.33329 10.8333C4.57079 10.8333 2.33329 8.59581 2.33329 5.83331C2.33329 3.07081 4.57079 0.833313 7.33329 0.833313C10.0958 0.833313 12.3333 3.07081 12.3333 5.83331C12.3333 8.59581 10.0958 10.8333 7.33329 10.8333ZM7.33329 9.16665C9.17496 9.16665 10.6666 7.67498 10.6666 5.83331C10.6666 3.99165 9.17496 2.49998 7.33329 2.49998C5.49163 2.49998 3.99996 3.99165 3.99996 5.83331C3.99996 7.67498 5.49163 9.16665 7.33329 9.16665ZM14.2366 12.2525C15.4077 12.7799 16.4016 13.6343 17.0988 14.7131C17.796 15.7918 18.1668 17.0489 18.1666 18.3333H16.5C16.5001 17.37 16.2221 16.4271 15.6992 15.618C15.1763 14.8089 14.4309 14.168 13.5525 13.7725L14.2358 12.2525H14.2366ZM13.6633 2.84415C14.5029 3.19023 15.2208 3.77793 15.7258 4.53267C16.2308 5.28742 16.5003 6.17518 16.5 7.08331C16.5003 8.22692 16.073 9.32934 15.3021 10.174C14.5311 11.0187 13.4722 11.5445 12.3333 11.6483V9.97081C12.9507 9.88238 13.5236 9.59833 13.9677 9.16036C14.4118 8.72239 14.7039 8.15358 14.8009 7.53742C14.898 6.92127 14.7949 6.29023 14.5069 5.73694C14.2189 5.18365 13.7612 4.73727 13.2008 4.46331L13.6633 2.84415Z" fill="white"/>
</svg>
