<svg width="20" height="21" viewBox="0 0 20 21" fill="none" xmlns="http://www.w3.org/2000/svg">
<path d="M14.1666 2.99999H17.5C17.721 2.99999 17.9329 3.08779 18.0892 3.24407C18.2455 3.40035 18.3333 3.61231 18.3333 3.83333V17.1667C18.3333 17.3877 18.2455 17.5996 18.0892 17.7559C17.9329 17.9122 17.721 18 17.5 18H2.49996C2.27895 18 2.06698 17.9122 1.9107 17.7559C1.75442 17.5996 1.66663 17.3877 1.66663 17.1667V3.83333C1.66663 3.61231 1.75442 3.40035 1.9107 3.24407C2.06698 3.08779 2.27895 2.99999 2.49996 2.99999H5.83329V1.33333H7.49996V2.99999H12.5V1.33333H14.1666V2.99999ZM12.5 4.66666H7.49996V6.33333H5.83329V4.66666H3.33329V7.99999H16.6666V4.66666H14.1666V6.33333H12.5V4.66666ZM16.6666 9.66666H3.33329V16.3333H16.6666V9.66666Z" fill="black"/>
</svg>
