<svg width="104" height="31" viewBox="0 0 104 31" fill="none" xmlns="http://www.w3.org/2000/svg">
<path d="M15.983 0C7.46129 0 0.552734 6.91835 0.552734 15.4524C0.552734 23.9868 7.46129 30.9046 15.983 30.9046C24.5057 30.9046 31.4135 23.9868 31.4135 15.4524C31.4135 6.9189 24.5057 0.000738091 15.9828 0.000738091L15.983 0ZM23.0593 22.2868C22.7829 22.7407 22.1896 22.8846 21.7363 22.606C18.1134 20.3899 13.5527 19.888 8.18155 21.1169C7.66397 21.235 7.14805 20.9102 7.03013 20.3917C6.91165 19.8732 7.23465 19.3565 7.75352 19.2384C13.6313 17.8936 18.6732 18.4727 22.7405 20.9619C23.1938 21.2405 23.3375 21.8329 23.0593 22.2868ZM24.9479 18.0793C24.5996 18.6461 23.8589 18.8251 23.2933 18.4764C19.1456 15.9233 12.8232 15.1839 7.91733 16.6752C7.28109 16.8677 6.6091 16.5086 6.416 15.8725C6.22437 15.2354 6.58312 14.5637 7.21825 14.37C12.8221 12.6672 19.7887 13.492 24.5517 16.4232C25.1174 16.7719 25.2961 17.5137 24.9479 18.0795V18.0793ZM25.11 13.6979C20.1369 10.7398 11.9319 10.4678 7.1838 11.911C6.42134 12.1426 5.61503 11.7115 5.38397 10.948C5.15291 10.1841 5.58297 9.37713 6.34598 9.145C11.7965 7.48797 20.8574 7.80812 26.583 11.212C27.2703 11.6196 27.4951 12.5067 27.0879 13.1925C26.6825 13.8793 25.7944 14.1057 25.1108 13.6979H25.11ZM42.5334 14.2648C39.8691 13.6286 39.3955 13.182 39.3955 12.2437C39.3955 11.3573 40.2284 10.7607 41.4684 10.7607C42.6698 10.7607 43.8601 11.2137 45.1094 12.1463C45.1462 12.1745 45.1941 12.1858 45.2402 12.1784C45.2881 12.1714 45.3286 12.1457 45.3563 12.1072L46.6571 10.2708C46.7106 10.1951 46.6958 10.0909 46.624 10.0331C45.137 8.83869 43.4639 8.25799 41.5071 8.25799C38.6309 8.25799 36.6206 9.9868 36.6206 12.4603C36.6206 15.1129 38.3545 16.0521 41.3505 16.7771C43.8988 17.3652 44.3299 17.8578 44.3299 18.7384C44.3299 19.7145 43.4603 20.3216 42.0599 20.3216C40.5048 20.3216 39.2352 19.7957 37.8164 18.5668C37.7814 18.5354 37.7335 18.5225 37.6893 18.5243C37.6414 18.528 37.599 18.5502 37.5695 18.5852L36.1102 20.3234C36.0494 20.3973 36.0568 20.5043 36.1268 20.567C37.7778 22.0432 39.8083 22.8219 42.0009 22.8219C45.1001 22.8219 47.103 21.1261 47.103 18.5004C47.1086 16.2848 45.7837 15.0577 42.539 14.2672L42.5334 14.2648ZM54.1159 11.6335C52.7726 11.6335 51.6708 12.1634 50.7605 13.2494V12.0271C50.7605 11.9306 50.6832 11.852 50.5873 11.852H48.2012C48.1054 11.852 48.028 11.9306 48.028 12.0271V25.6082C48.028 25.7042 48.1054 25.7835 48.2012 25.7835H50.5873C50.6832 25.7835 50.7605 25.7042 50.7605 25.6082V21.3217C51.6708 22.3421 52.7726 22.8422 54.1159 22.8422C56.6126 22.8422 59.1406 20.9176 59.1406 17.2384C59.1443 13.5584 56.6162 11.6333 54.1177 11.6333L54.1159 11.6335ZM56.3657 17.2384C56.3657 19.1111 55.2141 20.4194 53.5631 20.4194C51.9324 20.4194 50.7016 19.0521 50.7016 17.2384C50.7016 15.4245 51.9324 14.0576 53.5631 14.0576C55.1864 14.0574 56.3657 15.3948 56.3657 17.2382V17.2384ZM65.6172 11.6335C62.4019 11.6335 59.8831 14.1127 59.8831 17.2784C59.8831 20.4102 62.3854 22.8625 65.5785 22.8625C68.8049 22.8625 71.3311 20.3917 71.3311 17.2384C71.3311 14.0958 68.8215 11.6339 65.6172 11.6339V11.6335ZM65.6172 20.4379C63.9073 20.4379 62.6175 19.0613 62.6175 17.2375C62.6175 15.4053 63.8631 14.0758 65.5785 14.0758C67.2995 14.0758 68.5967 15.4518 68.5967 17.2775C68.5967 19.1093 67.3437 20.4379 65.6172 20.4379ZM78.1965 11.852H75.5708V9.16419C75.5708 9.06787 75.4934 8.98926 75.3976 8.98926H73.0115C72.9157 8.98926 72.8364 9.06787 72.8364 9.16419V11.852H71.6904C71.5946 11.852 71.5172 11.9306 71.5172 12.0271V14.0803C71.5172 14.1766 71.5946 14.2554 71.6904 14.2554H72.8364V19.5687C72.8364 21.7148 73.9033 22.8034 76.0094 22.8034C76.8643 22.8034 77.5737 22.6263 78.2426 22.2462C78.2979 22.2167 78.331 22.1576 78.331 22.0949V20.1389C78.331 20.0799 78.2997 20.0227 78.2481 19.9913C78.1965 19.9581 78.132 19.9562 78.0786 19.9839C77.6198 20.2146 77.1757 20.3216 76.6782 20.3216C75.9136 20.3216 75.5708 19.9729 75.5708 19.1942V14.2563H78.1965C78.2923 14.2563 78.3697 14.1777 78.3697 14.0812V12.0282C78.3734 11.9317 78.296 11.8531 78.1983 11.8531L78.1965 11.852ZM87.3431 11.8625V11.5324C87.3431 10.5612 87.7153 10.1281 88.5481 10.1281C89.0456 10.1281 89.4454 10.227 89.8932 10.3765C89.9485 10.3939 90.0056 10.3852 90.0498 10.3522C90.0959 10.3191 90.1217 10.2662 90.1217 10.2101V8.19691C90.1217 8.11997 90.0738 8.05188 89.9982 8.02918C89.5265 7.88839 88.9221 7.74391 88.0156 7.74391C85.8137 7.74391 84.6474 8.98649 84.6474 11.336V11.8416H83.5013C83.4055 11.8416 83.3262 11.9202 83.3262 12.0166V14.0803C83.3262 14.1766 83.4055 14.2554 83.5013 14.2554H84.6474V22.4492C84.6474 22.547 84.7266 22.6245 84.8224 22.6245H87.2067C87.3044 22.6245 87.3817 22.547 87.3817 22.4492V14.2559H89.6094L93.0219 22.4492C92.6349 23.309 92.2535 23.4806 91.7339 23.4806C91.3138 23.4806 90.8697 23.3552 90.4183 23.1061C90.3759 23.0839 90.3243 23.0802 90.2801 23.0931C90.2341 23.1098 90.1954 23.143 90.1769 23.1873L89.368 24.9642C89.3293 25.0491 89.3625 25.1469 89.4436 25.1912C90.2875 25.6488 91.0485 25.8444 91.99 25.8444C93.7515 25.8444 94.7263 25.0214 95.5831 22.8108L99.7215 12.1016C99.7436 12.0477 99.7362 11.9868 99.703 11.9391C99.6717 11.8916 99.6183 11.863 99.5612 11.863H97.0774C97.0018 11.863 96.9355 11.9105 96.9116 11.9804L94.367 19.2569L91.581 11.9756C91.5552 11.9079 91.4907 11.863 91.4188 11.863H87.3431V11.8625ZM82.0401 11.852H79.654C79.5582 11.852 79.4789 11.9306 79.4789 12.0271V22.4492C79.4789 22.547 79.5582 22.6245 79.654 22.6245H82.0401C82.1359 22.6245 82.2152 22.547 82.2152 22.4492V12.0278C82.2152 11.9313 82.1378 11.8527 82.0401 11.8527V11.852ZM80.8609 7.10619C79.9156 7.10619 79.1491 7.87234 79.1491 8.81876C79.1491 9.76574 79.9156 10.5328 80.8609 10.5328C81.8061 10.5328 82.5708 9.76574 82.5708 8.81876C82.5708 7.87252 81.8043 7.10619 80.8609 7.10619ZM101.759 15.2031C100.816 15.2031 100.081 14.4438 100.081 13.5217C100.081 12.5997 100.825 11.8317 101.769 11.8317C102.712 11.8317 103.447 12.5908 103.447 13.5121C103.447 14.4342 102.703 15.2031 101.759 15.2031ZM101.769 11.9988C100.908 11.9988 100.258 12.6834 100.258 13.5217C100.258 14.3596 100.904 15.035 101.759 15.035C102.62 15.035 103.27 14.351 103.27 13.5121C103.27 12.6742 102.624 11.9988 101.769 11.9988ZM102.141 13.685L102.616 14.3508H102.214L101.787 13.74H101.42V14.3508H101.085V12.586H101.87C102.281 12.586 102.55 12.7958 102.55 13.149C102.552 13.4383 102.384 13.6151 102.143 13.685H102.141ZM101.857 12.8888H101.42V13.447H101.857C102.074 13.447 102.205 13.3401 102.205 13.1676C102.205 12.986 102.074 12.8888 101.857 12.8888Z" fill="#1ED760"/>
</svg>
