<svg width="25" height="24" viewBox="0 0 25 24" fill="none" xmlns="http://www.w3.org/2000/svg">
<path d="M9 3C8.175 3 7.5 3.675 7.5 4.5C7.5 5.325 8.175 6 9 6C9.825 6 10.5 5.325 10.5 4.5C10.5 3.675 9.825 3 9 3ZM9 18C8.175 18 7.5 18.675 7.5 19.5C7.5 20.325 8.175 21 9 21C9.825 21 10.5 20.325 10.5 19.5C10.5 18.675 9.825 18 9 18ZM9 10.5C8.175 10.5 7.5 11.175 7.5 12C7.5 12.825 8.175 13.5 9 13.5C9.825 13.5 10.5 12.825 10.5 12C10.5 11.175 9.825 10.5 9 10.5Z" fill="black"/>
<path d="M16 3C15.175 3 14.5 3.675 14.5 4.5C14.5 5.325 15.175 6 16 6C16.825 6 17.5 5.325 17.5 4.5C17.5 3.675 16.825 3 16 3ZM16 18C15.175 18 14.5 18.675 14.5 19.5C14.5 20.325 15.175 21 16 21C16.825 21 17.5 20.325 17.5 19.5C17.5 18.675 16.825 18 16 18ZM16 10.5C15.175 10.5 14.5 11.175 14.5 12C14.5 12.825 15.175 13.5 16 13.5C16.825 13.5 17.5 12.825 17.5 12C17.5 11.175 16.825 10.5 16 10.5Z" fill="black"/>
</svg>
