<svg width="20" height="21" viewBox="0 0 20 21" fill="none" xmlns="http://www.w3.org/2000/svg">
<path d="M9.99996 2.16667C14.6025 2.16667 18.3333 5.89751 18.3333 10.5C18.3333 15.1025 14.6025 18.8333 9.99996 18.8333C5.39746 18.8333 1.66663 15.1025 1.66663 10.5C1.66663 5.89751 5.39746 2.16667 9.99996 2.16667ZM9.99996 3.83334C6.31829 3.83334 3.33329 6.81834 3.33329 10.5C3.33329 14.1817 6.31829 17.1667 9.99996 17.1667C13.6816 17.1667 16.6666 14.1817 16.6666 10.5C16.6666 6.81834 13.6816 3.83334 9.99996 3.83334ZM13.1941 6.61417C13.3916 6.47584 13.66 6.49917 13.83 6.67001C14 6.84001 14.0216 7.10834 13.8825 7.30334C12.0658 9.84167 11.0658 11.2017 10.8841 11.3842C10.3958 11.8717 9.60413 11.8717 9.11579 11.3842C8.62829 10.8958 8.62829 10.1042 9.11579 9.61584C9.42746 9.30501 10.7866 8.30417 13.1941 6.61417Z" fill="black"/>
</svg>
