<svg width="17" height="18" viewBox="0 0 17 18" fill="none" xmlns="http://www.w3.org/2000/svg">
<path d="M4.43333 4.83335V1.50002C4.43333 1.27901 4.52113 1.06704 4.67741 0.910765C4.83369 0.754484 5.04565 0.666687 5.26666 0.666687H16.1C16.321 0.666687 16.533 0.754484 16.6893 0.910765C16.8455 1.06704 16.9333 1.27901 16.9333 1.50002V12.3334C16.9333 12.5544 16.8455 12.7663 16.6893 12.9226C16.533 13.0789 16.321 13.1667 16.1 13.1667H12.7667V16.4942C12.7667 16.9575 12.3925 17.3334 11.9275 17.3334H1.10583C0.995598 17.3335 0.886427 17.3118 0.784565 17.2697C0.682703 17.2276 0.59015 17.1658 0.512205 17.0878C0.434259 17.0099 0.372451 16.9173 0.330317 16.8155C0.288184 16.7136 0.266553 16.6044 0.266663 16.4942L0.269163 5.67252C0.269163 5.20919 0.64333 4.83335 1.10833 4.83335H4.43333ZM6.1 4.83335H11.9275C12.3908 4.83335 12.7667 5.20752 12.7667 5.67252V11.5H15.2667V2.33335H6.1V4.83335ZM11.1 6.50002H1.93583L1.93333 15.6667H11.1V6.50002ZM5.68583 14L2.73916 11.0534L3.9175 9.87502L5.68583 11.6434L9.22083 8.10752L10.3992 9.28585L5.68583 14Z" fill="white"/>
</svg>
