<svg width="17" height="18" viewBox="0 0 17 18" fill="none" xmlns="http://www.w3.org/2000/svg">
<path d="M8.49999 17.3333C3.89749 17.3333 0.166656 13.6025 0.166656 8.99996C0.166656 4.39746 3.89749 0.666626 8.49999 0.666626C13.1025 0.666626 16.8333 4.39746 16.8333 8.99996C16.8333 13.6025 13.1025 17.3333 8.49999 17.3333ZM8.49999 15.6666C10.2681 15.6666 11.9638 14.9642 13.214 13.714C14.4643 12.4638 15.1667 10.7681 15.1667 8.99996C15.1667 7.23185 14.4643 5.53616 13.214 4.28591C11.9638 3.03567 10.2681 2.33329 8.49999 2.33329C6.73188 2.33329 5.03619 3.03567 3.78594 4.28591C2.5357 5.53616 1.83332 7.23185 1.83332 8.99996C1.83332 10.7681 2.5357 12.4638 3.78594 13.714C5.03619 14.9642 6.73188 15.6666 8.49999 15.6666ZM5.16666 9.83329H11.8333C11.8333 10.7173 11.4821 11.5652 10.857 12.1903C10.2319 12.8154 9.38405 13.1666 8.49999 13.1666C7.61594 13.1666 6.76809 12.8154 6.14297 12.1903C5.51785 11.5652 5.16666 10.7173 5.16666 9.83329ZM5.16666 8.16663C4.83514 8.16663 4.51719 8.03493 4.28277 7.80051C4.04835 7.56609 3.91666 7.24815 3.91666 6.91663C3.91666 6.58511 4.04835 6.26716 4.28277 6.03274C4.51719 5.79832 4.83514 5.66663 5.16666 5.66663C5.49818 5.66663 5.81612 5.79832 6.05054 6.03274C6.28496 6.26716 6.41666 6.58511 6.41666 6.91663C6.41666 7.24815 6.28496 7.56609 6.05054 7.80051C5.81612 8.03493 5.49818 8.16663 5.16666 8.16663ZM11.8333 8.16663C11.5018 8.16663 11.1839 8.03493 10.9494 7.80051C10.715 7.56609 10.5833 7.24815 10.5833 6.91663C10.5833 6.58511 10.715 6.26716 10.9494 6.03274C11.1839 5.79832 11.5018 5.66663 11.8333 5.66663C12.1648 5.66663 12.4828 5.79832 12.7172 6.03274C12.9516 6.26716 13.0833 6.58511 13.0833 6.91663C13.0833 7.24815 12.9516 7.56609 12.7172 7.80051C12.4828 8.03493 12.1648 8.16663 11.8333 8.16663Z" fill="black"/>
</svg>
