<svg width="20" height="21" viewBox="0 0 20 21" fill="none" xmlns="http://www.w3.org/2000/svg">
<path d="M14.6817 5.47333L15.8925 4.26249L17.0708 5.44083L15.86 6.65166C17.0565 8.1493 17.6341 10.0482 17.4742 11.9584C17.3144 13.8687 16.4292 15.6452 15.0004 16.9231C13.5717 18.201 11.7078 18.8834 9.79166 18.8301C7.87551 18.7767 6.05252 17.9917 4.69707 16.6363C3.34162 15.2808 2.55662 13.4578 2.50327 11.5417C2.44993 9.62552 3.1323 7.76168 4.41024 6.33292C5.68818 4.90416 7.46468 4.01896 9.3749 3.85909C11.2851 3.69923 13.184 4.27685 14.6817 5.47333ZM10 17.1667C10.7661 17.1667 11.5246 17.0158 12.2323 16.7226C12.9401 16.4295 13.5831 15.9998 14.1248 15.4581C14.6665 14.9164 15.0962 14.2734 15.3893 13.5656C15.6825 12.8579 15.8333 12.0994 15.8333 11.3333C15.8333 10.5673 15.6825 9.80874 15.3893 9.10101C15.0962 8.39328 14.6665 7.75021 14.1248 7.20854C13.5831 6.66686 12.9401 6.23718 12.2323 5.94403C11.5246 5.65088 10.7661 5.49999 10 5.49999C8.45291 5.49999 6.96918 6.11458 5.87522 7.20854C4.78126 8.3025 4.16668 9.78623 4.16668 11.3333C4.16668 12.8804 4.78126 14.3642 5.87522 15.4581C6.96918 16.5521 8.45291 17.1667 10 17.1667ZM9.16668 7.16666H10.8333V12.1667H9.16668V7.16666ZM6.66668 1.33333H13.3333V2.99999H6.66668V1.33333Z" fill="black"/>
</svg>
