<svg width="18" height="16" viewBox="0 0 18 16" fill="none" xmlns="http://www.w3.org/2000/svg">
<path d="M9.20081 1.77415C11.1583 0.0166499 14.1833 0.0749834 16.0691 1.96415C17.9541 3.85415 18.0191 6.86415 16.2658 8.82748L9.19914 15.9042L2.13414 8.82748C0.38081 6.86415 0.446643 3.84915 2.33081 1.96415C4.21831 0.0774834 7.23748 0.0141499 9.20081 1.77415ZM14.8891 3.14165C13.6391 1.88998 11.6225 1.83915 10.3141 3.01415L9.20164 4.01248L8.08831 3.01498C6.77581 1.83832 4.76331 1.88998 3.50998 3.14332C2.26831 4.38498 2.20581 6.37248 3.34998 7.68582L9.19998 13.545L15.05 7.68665C16.195 6.37248 16.1325 4.38748 14.8891 3.14165Z" fill="white"/>
</svg>
