<svg width="15" height="14" viewBox="0 0 15 14" fill="none" xmlns="http://www.w3.org/2000/svg">
<path d="M11.5206 9.9826L14.3759 12.8373L13.4326 13.7806L10.5779 10.9253C9.51575 11.7767 8.19459 12.2399 6.83325 12.2379C3.52125 12.2379 0.833252 9.54993 0.833252 6.23793C0.833252 2.92593 3.52125 0.23793 6.83325 0.23793C10.1453 0.23793 12.8333 2.92593 12.8333 6.23793C12.8352 7.59926 12.3721 8.92042 11.5206 9.9826ZM10.1833 9.48793C11.0293 8.61785 11.5018 7.45155 11.4999 6.23793C11.4999 3.65926 9.41125 1.57126 6.83325 1.57126C4.25459 1.57126 2.16659 3.65926 2.16659 6.23793C2.16659 8.81593 4.25459 10.9046 6.83325 10.9046C8.04687 10.9065 9.21318 10.434 10.0833 9.58793L10.1833 9.48793Z" fill="black"/>
</svg>
