<svg width="21" height="20" viewBox="0 0 21 20" fill="none" xmlns="http://www.w3.org/2000/svg">
<path d="M15.5 4H20.5V6H18.5V19C18.5 19.2652 18.3946 19.5196 18.2071 19.7071C18.0196 19.8946 17.7652 20 17.5 20H3.5C3.23478 20 2.98043 19.8946 2.79289 19.7071C2.60536 19.5196 2.5 19.2652 2.5 19V6H0.5V4H5.5V1C5.5 0.734784 5.60536 0.48043 5.79289 0.292893C5.98043 0.105357 6.23478 0 6.5 0H14.5C14.7652 0 15.0196 0.105357 15.2071 0.292893C15.3946 0.48043 15.5 0.734784 15.5 1V4ZM16.5 6H4.5V18H16.5V6ZM7.5 2V4H13.5V2H7.5Z" fill="black"/>
</svg>
