<svg width="20" height="21" viewBox="0 0 20 21" fill="none" xmlns="http://www.w3.org/2000/svg">
<path d="M13.3333 7.16667V8.83334H10.8333V12.5833C10.8332 13.0132 10.7002 13.4326 10.4523 13.7839C10.2045 14.1352 9.85408 14.4012 9.4491 14.5454C9.04412 14.6897 8.60443 14.7052 8.19032 14.5897C7.77622 14.4742 7.40799 14.2334 7.13612 13.9004C6.86426 13.5673 6.70208 13.1584 6.67183 12.7295C6.64158 12.3007 6.74474 11.873 6.96716 11.5051C7.18957 11.1372 7.52036 10.8471 7.91415 10.6746C8.30794 10.5021 8.74545 10.4557 9.16667 10.5417V7.16667H12.5V3.83334H4.16667V17.1667H15.8333V7.16667H13.3333ZM2.5 2.99334C2.5 2.53667 2.8725 2.16667 3.3325 2.16667H13.3333L17.5 6.33334V17.9942C17.5008 18.1036 17.48 18.2121 17.4388 18.3135C17.3976 18.4149 17.3369 18.5072 17.2601 18.5851C17.1832 18.6631 17.0918 18.7251 16.991 18.7677C16.8902 18.8103 16.7819 18.8326 16.6725 18.8333H3.3275C3.10865 18.8318 2.89918 18.7443 2.74435 18.5896C2.58951 18.4349 2.50175 18.2255 2.5 18.0067V2.99334Z" fill="black"/>
</svg>
