<svg width="45" height="46" viewBox="0 0 45 46" fill="none" xmlns="http://www.w3.org/2000/svg">
<path d="M22.5 45.5C10.0733 45.5 0 35.4268 0 23C0 10.5733 10.0733 0.5 22.5 0.5C34.9268 0.5 45 10.5733 45 23C45 35.4268 34.9268 45.5 22.5 45.5ZM22.5 41C27.2739 41 31.8523 39.1036 35.2279 35.7279C38.6036 32.3523 40.5 27.7739 40.5 23C40.5 18.2261 38.6036 13.6477 35.2279 10.2721C31.8523 6.89642 27.2739 5 22.5 5C17.7261 5 13.1477 6.89642 9.77208 10.2721C6.39642 13.6477 4.5 18.2261 4.5 23C4.5 27.7739 6.39642 32.3523 9.77208 35.7279C13.1477 39.1036 17.7261 41 22.5 41ZM22.5 29.75C20.7098 29.75 18.9929 29.0388 17.727 27.773C16.4612 26.5071 15.75 24.7902 15.75 23C15.75 21.2098 16.4612 19.4929 17.727 18.227C18.9929 16.9612 20.7098 16.25 22.5 16.25C24.2902 16.25 26.0071 16.9612 27.273 18.227C28.5388 19.4929 29.25 21.2098 29.25 23C29.25 24.7902 28.5388 26.5071 27.273 27.773C26.0071 29.0388 24.2902 29.75 22.5 29.75Z" fill="#FF4D4D"/>
</svg>
