<svg width="48" height="48" viewBox="0 0 48 48" fill="none" xmlns="http://www.w3.org/2000/svg">
<circle cx="24" cy="24" r="24" fill="#B8DC63"/>
<path d="M20.2812 24.875H17.9609L17.9531 23.4219H20.0078C20.3255 23.4219 20.5964 23.3594 20.8203 23.2344C21.0443 23.1094 21.2135 22.9271 21.3281 22.6875C21.4479 22.4479 21.5078 22.1589 21.5078 21.8203C21.5078 21.4453 21.4557 21.1406 21.3516 20.9062C21.2474 20.6667 21.0833 20.4922 20.8594 20.3828C20.6406 20.2734 20.3594 20.2188 20.0156 20.2188H18.5234V30H16.625V18.625H20.0156C20.5469 18.625 21.0208 18.6875 21.4375 18.8125C21.8594 18.9323 22.2161 19.1172 22.5078 19.3672C22.7995 19.6172 23.0208 19.9375 23.1719 20.3281C23.3281 20.7135 23.4062 21.1719 23.4062 21.7031C23.4062 22.1667 23.3073 22.5938 23.1094 22.9844C22.9115 23.3698 22.6172 23.6875 22.2266 23.9375C21.8411 24.1823 21.362 24.3281 20.7891 24.375L20.2812 24.875ZM20.2109 30H17.3359L18.2109 28.4141H20.2109C20.5495 28.4141 20.8281 28.3411 21.0469 28.1953C21.2656 28.0495 21.4297 27.8464 21.5391 27.5859C21.6484 27.3255 21.7031 27.0208 21.7031 26.6719C21.7031 26.3073 21.6562 25.9896 21.5625 25.7188C21.4688 25.4479 21.3177 25.2396 21.1094 25.0938C20.901 24.9479 20.625 24.875 20.2812 24.875H18.3672L18.3828 23.4219H20.8281L21.2656 23.9766C21.8125 23.987 22.2578 24.1224 22.6016 24.3828C22.9453 24.638 23.1979 24.9688 23.3594 25.375C23.5208 25.7812 23.6016 26.2161 23.6016 26.6797C23.6016 27.4036 23.4661 28.013 23.1953 28.5078C22.9245 28.9974 22.5365 29.3698 22.0312 29.625C21.5312 29.875 20.9245 30 20.2109 30ZM29.2578 25.7812H26.8594V24.1953H29.2578C29.6484 24.1953 29.9635 24.112 30.2031 23.9453C30.4479 23.7786 30.625 23.5495 30.7344 23.2578C30.849 22.9661 30.9062 22.6354 30.9062 22.2656C30.9062 21.9115 30.849 21.5781 30.7344 21.2656C30.625 20.9531 30.4505 20.7005 30.2109 20.5078C29.9714 20.3151 29.6536 20.2188 29.2578 20.2188H27.3906V30H25.5V18.625H29.2578C30.0078 18.625 30.6484 18.7812 31.1797 19.0938C31.7109 19.4062 32.1172 19.8359 32.3984 20.3828C32.6797 20.9245 32.8203 21.5469 32.8203 22.25C32.8203 22.9844 32.6797 23.6146 32.3984 24.1406C32.1172 24.6667 31.7109 25.0729 31.1797 25.3594C30.6484 25.6406 30.0078 25.7812 29.2578 25.7812Z" fill="black"/>
</svg>
