<svg width="48" height="48" viewBox="0 0 48 48" fill="none" xmlns="http://www.w3.org/2000/svg">
<circle cx="24" cy="24" r="24" fill="#92AFBF"/>
<path d="M15.7578 18.625H17.4844L20.1016 27.0859L22.7109 18.625H24.3125L20.8125 30H19.3828L15.7578 18.625ZM15.1094 18.625H16.7031L16.9609 25.8672V30H15.1094V18.625ZM23.4844 18.625H25.0859V30H23.2344V25.8672L23.4844 18.625ZM29.1172 18.625V30H27.2188V18.625H29.1172ZM34.7969 18.625L31.0078 24.1172L28.7344 26.9062L28.375 24.9219L29.9453 22.5938L32.5 18.625H34.7969ZM32.7109 30L29.8281 24.625L31.1328 23.2734L34.9531 30H32.7109Z" fill="black"/>
</svg>
