<svg width="48" height="48" viewBox="0 0 48 48" fill="none" xmlns="http://www.w3.org/2000/svg">
<circle cx="24" cy="24" r="24" fill="#70D6DE"/>
<path d="M21.25 18.625V30H19.3594V18.625H21.25ZM24.1484 18.625V20.2188H16.4922V18.625H24.1484ZM30.4141 27.0625C30.4141 26.8281 30.388 26.6198 30.3359 26.4375C30.2891 26.25 30.1979 26.0807 30.0625 25.9297C29.9271 25.7786 29.7344 25.6302 29.4844 25.4844C29.2396 25.3385 28.9219 25.1901 28.5312 25.0391C28.0833 24.8672 27.6641 24.6797 27.2734 24.4766C26.888 24.2682 26.5469 24.0339 26.25 23.7734C25.9583 23.5078 25.7292 23.1979 25.5625 22.8438C25.3958 22.4896 25.3125 22.0781 25.3125 21.6094C25.3125 21.1458 25.3932 20.724 25.5547 20.3438C25.7214 19.9583 25.9557 19.6276 26.2578 19.3516C26.5651 19.0703 26.9297 18.8542 27.3516 18.7031C27.7734 18.5469 28.2396 18.4688 28.75 18.4688C29.4844 18.4688 30.112 18.625 30.6328 18.9375C31.1589 19.25 31.5599 19.6693 31.8359 20.1953C32.1172 20.7214 32.2578 21.3047 32.2578 21.9453H30.3672C30.3672 21.5755 30.3099 21.2474 30.1953 20.9609C30.0807 20.6745 29.9036 20.4505 29.6641 20.2891C29.4245 20.1276 29.1146 20.0469 28.7344 20.0469C28.3854 20.0469 28.0964 20.1146 27.8672 20.25C27.6432 20.3854 27.4766 20.5703 27.3672 20.8047C27.263 21.0391 27.2109 21.3073 27.2109 21.6094C27.2109 21.8177 27.2552 22.0078 27.3438 22.1797C27.4323 22.3464 27.5599 22.5 27.7266 22.6406C27.8932 22.7812 28.0964 22.9141 28.3359 23.0391C28.5755 23.1641 28.8516 23.2839 29.1641 23.3984C29.6953 23.5911 30.1589 23.8047 30.5547 24.0391C30.9505 24.2734 31.276 24.5365 31.5312 24.8281C31.7917 25.1146 31.9844 25.4401 32.1094 25.8047C32.2396 26.1693 32.3047 26.5833 32.3047 27.0469C32.3047 27.5156 32.224 27.9427 32.0625 28.3281C31.9062 28.7083 31.6771 29.0339 31.375 29.3047C31.0729 29.5755 30.7083 29.7865 30.2812 29.9375C29.8542 30.0833 29.375 30.1562 28.8438 30.1562C28.3542 30.1562 27.8828 30.0833 27.4297 29.9375C26.9818 29.7917 26.5807 29.5703 26.2266 29.2734C25.8724 28.9714 25.5911 28.5938 25.3828 28.1406C25.1797 27.6875 25.0781 27.1562 25.0781 26.5469H26.9766C26.9766 26.9115 27.0208 27.224 27.1094 27.4844C27.1979 27.7396 27.3255 27.9505 27.4922 28.1172C27.6641 28.2786 27.8646 28.3984 28.0938 28.4766C28.3281 28.5495 28.5885 28.5859 28.875 28.5859C29.2292 28.5859 29.5182 28.5234 29.7422 28.3984C29.9714 28.2682 30.1406 28.0885 30.25 27.8594C30.3594 27.6302 30.4141 27.3646 30.4141 27.0625Z" fill="black"/>
</svg>
