<svg width="48" height="48" viewBox="0 0 48 48" fill="none" xmlns="http://www.w3.org/2000/svg">
<circle cx="24" cy="24" r="24" fill="#F8E593"/>
<path d="M18.7422 24.875H16.4219L16.4141 23.4219H18.4688C18.7865 23.4219 19.0573 23.3594 19.2812 23.2344C19.5052 23.1094 19.6745 22.9271 19.7891 22.6875C19.9089 22.4479 19.9688 22.1589 19.9688 21.8203C19.9688 21.4453 19.9167 21.1406 19.8125 20.9062C19.7083 20.6667 19.5443 20.4922 19.3203 20.3828C19.1016 20.2734 18.8203 20.2188 18.4766 20.2188H16.9844V30H15.0859V18.625H18.4766C19.0078 18.625 19.4818 18.6875 19.8984 18.8125C20.3203 18.9323 20.6771 19.1172 20.9688 19.3672C21.2604 19.6172 21.4818 19.9375 21.6328 20.3281C21.7891 20.7135 21.8672 21.1719 21.8672 21.7031C21.8672 22.1667 21.7682 22.5938 21.5703 22.9844C21.3724 23.3698 21.0781 23.6875 20.6875 23.9375C20.3021 24.1823 19.8229 24.3281 19.25 24.375L18.7422 24.875ZM18.6719 30H15.7969L16.6719 28.4141H18.6719C19.0104 28.4141 19.2891 28.3411 19.5078 28.1953C19.7266 28.0495 19.8906 27.8464 20 27.5859C20.1094 27.3255 20.1641 27.0208 20.1641 26.6719C20.1641 26.3073 20.1172 25.9896 20.0234 25.7188C19.9297 25.4479 19.7786 25.2396 19.5703 25.0938C19.362 24.9479 19.0859 24.875 18.7422 24.875H16.8281L16.8438 23.4219H19.2891L19.7266 23.9766C20.2734 23.987 20.7188 24.1224 21.0625 24.3828C21.4062 24.638 21.6589 24.9688 21.8203 25.375C21.9818 25.7812 22.0625 26.2161 22.0625 26.6797C22.0625 27.4036 21.9271 28.013 21.6562 28.5078C21.3854 28.9974 20.9974 29.3698 20.4922 29.625C19.9922 29.875 19.3854 30 18.6719 30ZM26.3828 27.5078L28.2031 18.625H29.3281L29.2812 20.8516L27.3125 30H26.1328L26.3828 27.5078ZM25.2266 18.625L26.6719 27.4453L26.7344 30H25.4922L23.3438 18.625H25.2266ZM31.3047 27.4141L32.7344 18.625H34.6094L32.4688 30H31.2266L31.3047 27.4141ZM29.7812 18.625L31.5859 27.5312L31.8203 30H30.6406L28.7188 20.8438L28.6719 18.625H29.7812Z" fill="black"/>
</svg>
