<svg width="17" height="4" viewBox="0 0 17 4" fill="none" xmlns="http://www.w3.org/2000/svg">
<path d="M2.60526 0.315796C1.67895 0.315796 0.921051 1.07369 0.921051 2.00001C0.921051 2.92632 1.67895 3.68422 2.60526 3.68422C3.53158 3.68422 4.28947 2.92632 4.28947 2.00001C4.28947 1.07369 3.53158 0.315796 2.60526 0.315796ZM14.3947 0.315796C13.4684 0.315796 12.7105 1.07369 12.7105 2.00001C12.7105 2.92632 13.4684 3.68422 14.3947 3.68422C15.321 3.68422 16.0789 2.92632 16.0789 2.00001C16.0789 1.07369 15.321 0.315796 14.3947 0.315796ZM8.5 0.315796C7.57368 0.315796 6.81579 1.07369 6.81579 2.00001C6.81579 2.92632 7.57368 3.68422 8.5 3.68422C9.42631 3.68422 10.1842 2.92632 10.1842 2.00001C10.1842 1.07369 9.42631 0.315796 8.5 0.315796Z" fill="black"/>
</svg>
