<svg width="18" height="18" viewBox="0 0 18 18" fill="none" xmlns="http://www.w3.org/2000/svg">
<path d="M14.0258 12.8473L17.595 16.4157L16.4158 17.5948L12.8475 14.0257C11.5197 15.09 9.86829 15.6689 8.16663 15.6665C4.02663 15.6665 0.666626 12.3065 0.666626 8.1665C0.666626 4.0265 4.02663 0.666504 8.16663 0.666504C12.3066 0.666504 15.6666 4.0265 15.6666 8.1665C15.669 9.86817 15.0901 11.5196 14.0258 12.8473ZM12.3541 12.229C13.4117 11.1414 14.0023 9.68353 14 8.1665C14 4.94317 11.3891 2.33317 8.16663 2.33317C4.94329 2.33317 2.33329 4.94317 2.33329 8.1665C2.33329 11.389 4.94329 13.9998 8.16663 13.9998C9.68365 14.0022 11.1415 13.4116 12.2291 12.354L12.3541 12.229V12.229Z" fill="#84F39E"/>
</svg>
