<svg width="48" height="48" viewBox="0 0 48 48" fill="none" xmlns="http://www.w3.org/2000/svg">
<circle cx="24" cy="24" r="24" fill="#B8DC63"/>
<path d="M20.2891 20.1875L17.5391 30H15.5547L19.1641 18.625H20.3984L20.2891 20.1875ZM22.4844 30L19.7266 20.1875L19.5938 18.625H20.8516L24.4766 30H22.4844ZM22.5312 25.7734V27.3672H17.2344V25.7734H22.5312ZM31.1953 26.2891H33.0859C33.0495 27.112 32.8828 27.8125 32.5859 28.3906C32.2891 28.9635 31.862 29.401 31.3047 29.7031C30.7526 30.0052 30.0781 30.1562 29.2812 30.1562C28.6771 30.1562 28.1354 30.0469 27.6562 29.8281C27.1823 29.6094 26.7786 29.2943 26.4453 28.8828C26.112 28.4661 25.8568 27.9583 25.6797 27.3594C25.5078 26.7604 25.4219 26.0807 25.4219 25.3203V23.3047C25.4219 22.5443 25.5104 21.8646 25.6875 21.2656C25.8698 20.6667 26.1302 20.1589 26.4688 19.7422C26.8073 19.3255 27.2188 19.0104 27.7031 18.7969C28.1927 18.5781 28.7448 18.4688 29.3594 18.4688C30.1458 18.4688 30.8073 18.6198 31.3438 18.9219C31.8802 19.224 32.2943 19.6667 32.5859 20.25C32.8776 20.8333 33.0469 21.5443 33.0938 22.3828H31.2031C31.1771 21.8151 31.099 21.362 30.9688 21.0234C30.8438 20.6797 30.651 20.4323 30.3906 20.2812C30.1354 20.1302 29.7917 20.0547 29.3594 20.0547C29 20.0547 28.6901 20.1224 28.4297 20.2578C28.1745 20.3932 27.9635 20.5964 27.7969 20.8672C27.6354 21.1328 27.513 21.4688 27.4297 21.875C27.3516 22.276 27.3125 22.7474 27.3125 23.2891V25.3203C27.3125 25.8411 27.3464 26.3021 27.4141 26.7031C27.4818 27.1042 27.5911 27.4453 27.7422 27.7266C27.8932 28.0026 28.0938 28.2135 28.3438 28.3594C28.5938 28.5 28.9062 28.5703 29.2812 28.5703C29.7292 28.5703 30.0859 28.5 30.3516 28.3594C30.6224 28.2188 30.8229 27.9818 30.9531 27.6484C31.0833 27.3151 31.1641 26.862 31.1953 26.2891Z" fill="black"/>
</svg>
