<svg width="48" height="48" viewBox="0 0 48 48" fill="none" xmlns="http://www.w3.org/2000/svg">
<circle cx="24" cy="24" r="24" fill="#C4EDEE"/>
<path d="M19.1875 30H17.2109L17.2266 28.4141H19.1875C19.7969 28.4141 20.2839 28.3021 20.6484 28.0781C21.013 27.849 21.276 27.5 21.4375 27.0312C21.599 26.5625 21.6797 25.9635 21.6797 25.2344V23.3828C21.6797 22.8203 21.6328 22.3411 21.5391 21.9453C21.4505 21.5443 21.3099 21.2188 21.1172 20.9688C20.9297 20.7135 20.6823 20.526 20.375 20.4062C20.0677 20.2812 19.6979 20.2188 19.2656 20.2188H17.1719V18.625H19.2656C19.9167 18.625 20.5052 18.7292 21.0312 18.9375C21.5573 19.1458 22.0078 19.4531 22.3828 19.8594C22.763 20.2604 23.0547 20.7578 23.2578 21.3516C23.4609 21.9453 23.5625 22.6276 23.5625 23.3984V25.2344C23.5625 26.0052 23.4609 26.6875 23.2578 27.2812C23.0547 27.8698 22.763 28.3672 22.3828 28.7734C22.0026 29.1745 21.5443 29.4792 21.0078 29.6875C20.4714 29.8958 19.8646 30 19.1875 30ZM18.2969 18.625V30H16.3984V18.625H18.2969ZM29.2422 20.1875L26.4922 30H24.5078L28.1172 18.625H29.3516L29.2422 20.1875ZM31.4375 30L28.6797 20.1875L28.5469 18.625H29.8047L33.4297 30H31.4375ZM31.4844 25.7734V27.3672H26.1875V25.7734H31.4844Z" fill="black"/>
</svg>
