<svg width="48" height="48" viewBox="0 0 48 48" fill="none" xmlns="http://www.w3.org/2000/svg">
<circle cx="24" cy="24" r="24" fill="#E757F9"/>
<path d="M17.0078 18.625V30H15.1094V18.625H17.0078ZM22.6875 18.625L18.8984 24.1172L16.625 26.9062L16.2656 24.9219L17.8359 22.5938L20.3906 18.625H22.6875ZM20.6016 30L17.7188 24.625L19.0234 23.2734L22.8438 30H20.6016ZM24.5547 18.625H26.2812L28.8984 27.0859L31.5078 18.625H33.1094L29.6094 30H28.1797L24.5547 18.625ZM23.9062 18.625H25.5L25.7578 25.8672V30H23.9062V18.625ZM32.2812 18.625H33.8828V30H32.0312V25.8672L32.2812 18.625Z" fill="black"/>
</svg>
